<svg xmlns="http://www.w3.org/2000/svg" width="760" height="800">
<rect width="760" height="800" fill="white" />
<rect x="140" y="600" width="80" height="80" fill="#ffffff" />
<rect x="220" y="600" width="80" height="80" fill="#ffffff" />
<rect x="300" y="600" width="80" height="80" fill="#ffffff" />
<rect x="380" y="600" width="80" height="80" fill="#ffffff" />
<rect x="460" y="600" width="80" height="80" fill="#ffffff" />
<rect x="540" y="600" width="80" height="80" fill="#ffffff" />
<rect x="620" y="600" width="80" height="80" fill="#ffffff" />
<rect x="140" y="520" width="80" height="80" fill="#ffffff" />
<rect x="220" y="520" width="80" height="80" fill="#c9deed" />
<rect x="300" y="520" width="80" height="80" fill="#c9deed" />
<rect x="380" y="520" width="80" height="80" fill="#ffffff" />
<rect x="460" y="520" width="80" height="80" fill="#c9deed" />
<rect x="540" y="520" width="80" height="80" fill="#93bddb" />
<rect x="620" y="520" width="80" height="80" fill="#ffffff" />
<rect x="140" y="440" width="80" height="80" fill="#ffffff" />
<rect x="220" y="440" width="80" height="80" fill="#ffffff" />
<rect x="300" y="440" width="80" height="80" fill="#ffffff" />
<rect x="380" y="440" width="80" height="80" fill="#ffffff" />
<rect x="460" y="440" width="80" height="80" fill="#93bddb" />
<rect x="540" y="440" width="80" height="80" fill="#5e9dc9" />
<rect x="620" y="440" width="80" height="80" fill="#ffffff" />
<rect x="140" y="360" width="80" height="80" fill="#ffffff" />
<rect x="220" y="360" width="80" height="80" fill="#ffffff" />
<rect x="300" y="360" width="80" height="80" fill="#c9deed" />
<rect x="380" y="360" width="80" height="80" fill="#93bddb" />
<rect x="460" y="360" width="80" height="80" fill="#c9deed" />
<rect x="540" y="360" width="80" height="80" fill="#ffffff" />
<rect x="620" y="360" width="80" height="80" fill="#ffffff" />
<rect x="140" y="280" width="80" height="80" fill="#ffffff" />
<rect x="220" y="280" width="80" height="80" fill="#ffffff" />
<rect x="300" y="280" width="80" height="80" fill="#ffffff" />
<rect x="380" y="280" width="80" height="80" fill="#ffffff" />
<rect x="460" y="280" width="80" height="80" fill="#c9deed" />
<rect x="540" y="280" width="80" height="80" fill="#ffffff" />
<rect x="620" y="280" width="80" height="80" fill="#ffffff" />
<rect x="140" y="200" width="80" height="80" fill="#ffffff" />
<rect x="220" y="200" width="80" height="80" fill="#ffffff" />
<rect x="300" y="200" width="80" height="80" fill="#ffffff" />
<rect x="380" y="200" width="80" height="80" fill="#c9deed" />
<rect x="460" y="200" width="80" height="80" fill="#93bddb" />
<rect x="540" y="200" width="80" height="80" fill="#93bddb" />
<rect x="620" y="200" width="80" height="80" fill="#ffffff" />
<rect x="140" y="120" width="80" height="80" fill="#ffffff" />
<rect x="220" y="120" width="80" height="80" fill="#c9deed" />
<rect x="300" y="120" width="80" height="80" fill="#93bddb" />
<rect x="380" y="120" width="80" height="80" fill="#c9deed" />
<rect x="460" y="120" width="80" height="80" fill="#ffffff" />
<rect x="540" y="120" width="80" height="80" fill="#ffffff" />
<rect x="620" y="120" width="80" height="80" fill="#ffffff" />
<line x1="140" y1="120" x2="140" y2="680" stroke="#c8c8c8" />
<line x1="140" y1="120" x2="700" y2="120" stroke="#c8c8c8" />
<line x1="220" y1="120" x2="220" y2="680" stroke="#c8c8c8" />
<line x1="140" y1="200" x2="700" y2="200" stroke="#c8c8c8" />
<line x1="300" y1="120" x2="300" y2="680" stroke="#c8c8c8" />
<line x1="140" y1="280" x2="700" y2="280" stroke="#c8c8c8" />
<line x1="380" y1="120" x2="380" y2="680" stroke="#c8c8c8" />
<line x1="140" y1="360" x2="700" y2="360" stroke="#c8c8c8" />
<line x1="460" y1="120" x2="460" y2="680" stroke="#c8c8c8" />
<line x1="140" y1="440" x2="700" y2="440" stroke="#c8c8c8" />
<line x1="540" y1="120" x2="540" y2="680" stroke="#c8c8c8" />
<line x1="140" y1="520" x2="700" y2="520" stroke="#c8c8c8" />
<line x1="620" y1="120" x2="620" y2="680" stroke="#c8c8c8" />
<line x1="140" y1="600" x2="700" y2="600" stroke="#c8c8c8" />
<line x1="700" y1="120" x2="700" y2="680" stroke="#c8c8c8" />
<line x1="140" y1="680" x2="700" y2="680" stroke="#c8c8c8" />
<text x="180.0" y="710" text-anchor="middle" font-size="16" font-family="Arial">1</text>
<text x="260.0" y="710" text-anchor="middle" font-size="16" font-family="Arial">2</text>
<text x="340.0" y="710" text-anchor="middle" font-size="16" font-family="Arial">3</text>
<text x="420.0" y="710" text-anchor="middle" font-size="16" font-family="Arial">4</text>
<text x="500.0" y="710" text-anchor="middle" font-size="16" font-family="Arial">5</text>
<text x="580.0" y="710" text-anchor="middle" font-size="16" font-family="Arial">6</text>
<text x="660.0" y="710" text-anchor="middle" font-size="16" font-family="Arial">7</text>
<text x="120" y="646.0" text-anchor="end" font-size="16" font-family="Arial">1</text>
<text x="120" y="566.0" text-anchor="end" font-size="16" font-family="Arial">2</text>
<text x="120" y="486.0" text-anchor="end" font-size="16" font-family="Arial">3</text>
<text x="120" y="406.0" text-anchor="end" font-size="16" font-family="Arial">4</text>
<text x="120" y="326.0" text-anchor="end" font-size="16" font-family="Arial">5</text>
<text x="120" y="246.0" text-anchor="end" font-size="16" font-family="Arial">6</text>
<text x="120" y="166.0" text-anchor="end" font-size="16" font-family="Arial">7</text>
<text x="20" y="60" font-size="22" font-family="Arial">Moderate mapping style</text>
<text x="20" y="90" font-size="16" font-family="Arial" fill="#505050">n=1 participants, 24 placements</text>
<text x="260" y="740" font-size="16" font-family="Arial">Implementability</text>
<text x="20" y="320" font-size="16" font-family="Arial">Impact</text>
<text x="180.0" y="646.0" text-anchor="middle" font-size="14" font-family="Arial" fill="#000000">0.0%</text>
<text x="260.0" y="646.0" text-anchor="middle" font-size="14" font-family="Arial" fill="#000000">0.0%</text>
<text x="340.0" y="646.0" text-anchor="middle" font-size="14" font-family="Arial" fill="#000000">0.0%</text>
<text x="420.0" y="646.0" text-anchor="middle" font-size="14" font-family="Arial" fill="#000000">0.0%</text>
<text x="500.0" y="646.0" text-anchor="middle" font-size="14" font-family="Arial" fill="#000000">0.0%</text>
<text x="580.0" y="646.0" text-anchor="middle" font-size="14" font-family="Arial" fill="#000000">0.0%</text>
<text x="660.0" y="646.0" text-anchor="middle" font-size="14" font-family="Arial" fill="#000000">0.0%</text>
<text x="180.0" y="566.0" text-anchor="middle" font-size="14" font-family="Arial" fill="#000000">0.0%</text>
<text x="260.0" y="566.0" text-anchor="middle" font-size="14" font-family="Arial" fill="#000000">4.2%</text>
<text x="340.0" y="566.0" text-anchor="middle" font-size="14" font-family="Arial" fill="#000000">4.2%</text>
<text x="420.0" y="566.0" text-anchor="middle" font-size="14" font-family="Arial" fill="#000000">0.0%</text>
<text x="500.0" y="566.0" text-anchor="middle" font-size="14" font-family="Arial" fill="#000000">4.2%</text>
<text x="580.0" y="566.0" text-anchor="middle" font-size="14" font-family="Arial" fill="#000000">8.3%</text>
<text x="660.0" y="566.0" text-anchor="middle" font-size="14" font-family="Arial" fill="#000000">0.0%</text>
<text x="180.0" y="486.0" text-anchor="middle" font-size="14" font-family="Arial" fill="#000000">0.0%</text>
<text x="260.0" y="486.0" text-anchor="middle" font-size="14" font-family="Arial" fill="#000000">0.0%</text>
<text x="340.0" y="486.0" text-anchor="middle" font-size="14" font-family="Arial" fill="#000000">0.0%</text>
<text x="420.0" y="486.0" text-anchor="middle" font-size="14" font-family="Arial" fill="#000000">0.0%</text>
<text x="500.0" y="486.0" text-anchor="middle" font-size="14" font-family="Arial" fill="#000000">8.3%</text>
<text x="580.0" y="486.0" text-anchor="middle" font-size="14" font-family="Arial" fill="#ffffff">12.5%</text>
<text x="660.0" y="486.0" text-anchor="middle" font-size="14" font-family="Arial" fill="#000000">0.0%</text>
<text x="180.0" y="406.0" text-anchor="middle" font-size="14" font-family="Arial" fill="#000000">0.0%</text>
<text x="260.0" y="406.0" text-anchor="middle" font-size="14" font-family="Arial" fill="#000000">0.0%</text>
<text x="340.0" y="406.0" text-anchor="middle" font-size="14" font-family="Arial" fill="#000000">4.2%</text>
<text x="420.0" y="406.0" text-anchor="middle" font-size="14" font-family="Arial" fill="#000000">8.3%</text>
<text x="500.0" y="406.0" text-anchor="middle" font-size="14" font-family="Arial" fill="#000000">4.2%</text>
<text x="580.0" y="406.0" text-anchor="middle" font-size="14" font-family="Arial" fill="#000000">0.0%</text>
<text x="660.0" y="406.0" text-anchor="middle" font-size="14" font-family="Arial" fill="#000000">0.0%</text>
<text x="180.0" y="326.0" text-anchor="middle" font-size="14" font-family="Arial" fill="#000000">0.0%</text>
<text x="260.0" y="326.0" text-anchor="middle" font-size="14" font-family="Arial" fill="#000000">0.0%</text>
<text x="340.0" y="326.0" text-anchor="middle" font-size="14" font-family="Arial" fill="#000000">0.0%</text>
<text x="420.0" y="326.0" text-anchor="middle" font-size="14" font-family="Arial" fill="#000000">0.0%</text>
<text x="500.0" y="326.0" text-anchor="middle" font-size="14" font-family="Arial" fill="#000000">4.2%</text>
<text x="580.0" y="326.0" text-anchor="middle" font-size="14" font-family="Arial" fill="#000000">0.0%</text>
<text x="660.0" y="326.0" text-anchor="middle" font-size="14" font-family="Arial" fill="#000000">0.0%</text>
<text x="180.0" y="246.0" text-anchor="middle" font-size="14" font-family="Arial" fill="#000000">0.0%</text>
<text x="260.0" y="246.0" text-anchor="middle" font-size="14" font-family="Arial" fill="#000000">0.0%</text>
<text x="340.0" y="246.0" text-anchor="middle" font-size="14" font-family="Arial" fill="#000000">0.0%</text>
<text x="420.0" y="246.0" text-anchor="middle" font-size="14" font-family="Arial" fill="#000000">4.2%</text>
<text x="500.0" y="246.0" text-anchor="middle" font-size="14" font-family="Arial" fill="#000000">8.3%</text>
<text x="580.0" y="246.0" text-anchor="middle" font-size="14" font-family="Arial" fill="#000000">8.3%</text>
<text x="660.0" y="246.0" text-anchor="middle" font-size="14" font-family="Arial" fill="#000000">0.0%</text>
<text x="180.0" y="166.0" text-anchor="middle" font-size="14" font-family="Arial" fill="#000000">0.0%</text>
<text x="260.0" y="166.0" text-anchor="middle" font-size="14" font-family="Arial" fill="#000000">4.2%</text>
<text x="340.0" y="166.0" text-anchor="middle" font-size="14" font-family="Arial" fill="#000000">8.3%</text>
<text x="420.0" y="166.0" text-anchor="middle" font-size="14" font-family="Arial" fill="#000000">4.2%</text>
<text x="500.0" y="166.0" text-anchor="middle" font-size="14" font-family="Arial" fill="#000000">0.0%</text>
<text x="580.0" y="166.0" text-anchor="middle" font-size="14" font-family="Arial" fill="#000000">0.0%</text>
<text x="660.0" y="166.0" text-anchor="middle" font-size="14" font-family="Arial" fill="#000000">0.0%</text>
</svg>