<?xml version="1.0" encoding="UTF-8"?>
<svg xmlns="http://www.w3.org/2000/svg" width="1500" height="700" viewBox="0 0 1500 700">
<rect width="100%" height="100%" fill="white" />
<defs>
<marker id="axis-arrow" markerWidth="12" markerHeight="12" refX="10" refY="6" orient="auto" markerUnits="strokeWidth">
<path d="M0,0 L12,6 L0,12 Z" fill="#000" />
</marker>
</defs>
<style>text { font-family: "Arial", "Helvetica", sans-serif; fill: #000; }</style>
<text x="120" y="50" font-size="22" font-weight="bold">Decisive mapper placements</text>
<text x="120" y="74" font-size="16" font-weight="normal">Total placements: 23</text>
<line x1="112" y1="570" x2="112" y2="120" stroke="#000" stroke-width="5" marker-end="url(#axis-arrow)" />
<line x1="120" y1="578" x2="570" y2="578" stroke="#000" stroke-width="5" marker-end="url(#axis-arrow)" />
<text x="146.0" y="606" font-size="16" font-weight="normal">1</text>
<text x="86" y="546.0" font-size="16" font-weight="normal">1</text>
<text x="206.0" y="606" font-size="16" font-weight="normal">2</text>
<text x="86" y="486.0" font-size="16" font-weight="normal">2</text>
<text x="266.0" y="606" font-size="16" font-weight="normal">3</text>
<text x="86" y="426.0" font-size="16" font-weight="normal">3</text>
<text x="326.0" y="606" font-size="16" font-weight="normal">4</text>
<text x="86" y="366.0" font-size="16" font-weight="normal">4</text>
<text x="386.0" y="606" font-size="16" font-weight="normal">5</text>
<text x="86" y="306.0" font-size="16" font-weight="normal">5</text>
<text x="446.0" y="606" font-size="16" font-weight="normal">6</text>
<text x="86" y="246.0" font-size="16" font-weight="normal">6</text>
<text x="506.0" y="606" font-size="16" font-weight="normal">7</text>
<text x="86" y="186.0" font-size="16" font-weight="normal">7</text>
<text x="170.0" y="648" font-size="18" font-weight="normal">Implementability (1 = Hard, 7 = Easy)</text>
<text x="0" y="440.0" font-size="18" font-weight="normal" transform="rotate(-90 0 440.0)">Degree of impact (1 = Low, 7 = High)</text>
<rect x="120" y="150" width="420" height="420" fill="none" stroke="#000" stroke-width="3" />
<line x1="180" y1="150" x2="180" y2="570" stroke="#000" stroke-width="1" />
<line x1="120" y1="210" x2="540" y2="210" stroke="#000" stroke-width="1" />
<line x1="240" y1="150" x2="240" y2="570" stroke="#000" stroke-width="1" />
<line x1="120" y1="270" x2="540" y2="270" stroke="#000" stroke-width="1" />
<line x1="300" y1="150" x2="300" y2="570" stroke="#000" stroke-width="1" />
<line x1="120" y1="330" x2="540" y2="330" stroke="#000" stroke-width="1" />
<line x1="360" y1="150" x2="360" y2="570" stroke="#000" stroke-width="1" />
<line x1="120" y1="390" x2="540" y2="390" stroke="#000" stroke-width="1" />
<line x1="420" y1="150" x2="420" y2="570" stroke="#000" stroke-width="1" />
<line x1="120" y1="450" x2="540" y2="450" stroke="#000" stroke-width="1" />
<line x1="480" y1="150" x2="480" y2="570" stroke="#000" stroke-width="1" />
<line x1="120" y1="510" x2="540" y2="510" stroke="#000" stroke-width="1" />
<circle cx="150.0" cy="540.0" r="16.00" fill="none" stroke="#000" stroke-width="2" />
<circle cx="270.0" cy="420.0" r="16.00" fill="none" stroke="#000" stroke-width="2" />
<circle cx="210.0" cy="360.0" r="16.00" fill="none" stroke="#000" stroke-width="2" />
<circle cx="270.0" cy="360.0" r="16.00" fill="none" stroke="#000" stroke-width="2" />
<circle cx="450.0" cy="360.0" r="16.00" fill="none" stroke="#000" stroke-width="2" />
<circle cx="210.0" cy="300.0" r="16.00" fill="none" stroke="#000" stroke-width="2" />
<circle cx="330.0" cy="300.0" r="16.00" fill="none" stroke="#000" stroke-width="2" />
<circle cx="390.0" cy="300.0" r="16.00" fill="none" stroke="#000" stroke-width="2" />
<circle cx="270.0" cy="240.0" r="16.00" fill="none" stroke="#000" stroke-width="2" />
<circle cx="330.0" cy="240.0" r="16.00" fill="none" stroke="#000" stroke-width="2" />
<circle cx="450.0" cy="240.0" r="16.00" fill="none" stroke="#000" stroke-width="2" />
<circle cx="510.0" cy="240.0" r="16.00" fill="none" stroke="#000" stroke-width="2" />
<circle cx="210.0" cy="180.0" r="16.00" fill="none" stroke="#000" stroke-width="2" />
<circle cx="270.0" cy="180.0" r="16.00" fill="none" stroke="#000" stroke-width="2" />
<circle cx="330.0" cy="180.0" r="16.00" fill="none" stroke="#000" stroke-width="2" />
<circle cx="390.0" cy="180.0" r="16.00" fill="none" stroke="#000" stroke-width="2" />
<circle cx="450.0" cy="180.0" r="23.32" fill="none" stroke="#000" stroke-width="2" />
<circle cx="510.0" cy="180.0" r="26.00" fill="none" stroke="#000" stroke-width="2" />
<text x="680" y="50" font-size="22" font-weight="bold">Moderate mapper placements</text>
<text x="680" y="74" font-size="16" font-weight="normal">Total placements: 24</text>
<line x1="672" y1="570" x2="672" y2="120" stroke="#000" stroke-width="5" marker-end="url(#axis-arrow)" />
<line x1="680" y1="578" x2="1130" y2="578" stroke="#000" stroke-width="5" marker-end="url(#axis-arrow)" />
<text x="706.0" y="606" font-size="16" font-weight="normal">1</text>
<text x="646" y="546.0" font-size="16" font-weight="normal">1</text>
<text x="766.0" y="606" font-size="16" font-weight="normal">2</text>
<text x="646" y="486.0" font-size="16" font-weight="normal">2</text>
<text x="826.0" y="606" font-size="16" font-weight="normal">3</text>
<text x="646" y="426.0" font-size="16" font-weight="normal">3</text>
<text x="886.0" y="606" font-size="16" font-weight="normal">4</text>
<text x="646" y="366.0" font-size="16" font-weight="normal">4</text>
<text x="946.0" y="606" font-size="16" font-weight="normal">5</text>
<text x="646" y="306.0" font-size="16" font-weight="normal">5</text>
<text x="1006.0" y="606" font-size="16" font-weight="normal">6</text>
<text x="646" y="246.0" font-size="16" font-weight="normal">6</text>
<text x="1066.0" y="606" font-size="16" font-weight="normal">7</text>
<text x="646" y="186.0" font-size="16" font-weight="normal">7</text>
<text x="730.0" y="648" font-size="18" font-weight="normal">Implementability (1 = Hard, 7 = Easy)</text>
<text x="560" y="440.0" font-size="18" font-weight="normal" transform="rotate(-90 560 440.0)">Degree of impact (1 = Low, 7 = High)</text>
<rect x="680" y="150" width="420" height="420" fill="none" stroke="#000" stroke-width="3" />
<line x1="740" y1="150" x2="740" y2="570" stroke="#000" stroke-width="1" />
<line x1="680" y1="210" x2="1100" y2="210" stroke="#000" stroke-width="1" />
<line x1="800" y1="150" x2="800" y2="570" stroke="#000" stroke-width="1" />
<line x1="680" y1="270" x2="1100" y2="270" stroke="#000" stroke-width="1" />
<line x1="860" y1="150" x2="860" y2="570" stroke="#000" stroke-width="1" />
<line x1="680" y1="330" x2="1100" y2="330" stroke="#000" stroke-width="1" />
<line x1="920" y1="150" x2="920" y2="570" stroke="#000" stroke-width="1" />
<line x1="680" y1="390" x2="1100" y2="390" stroke="#000" stroke-width="1" />
<line x1="980" y1="150" x2="980" y2="570" stroke="#000" stroke-width="1" />
<line x1="680" y1="450" x2="1100" y2="450" stroke="#000" stroke-width="1" />
<line x1="1040" y1="150" x2="1040" y2="570" stroke="#000" stroke-width="1" />
<line x1="680" y1="510" x2="1100" y2="510" stroke="#000" stroke-width="1" />
<circle cx="770.0" cy="480.0" r="16.00" fill="none" stroke="#000" stroke-width="2" />
<circle cx="830.0" cy="480.0" r="16.00" fill="none" stroke="#000" stroke-width="2" />
<circle cx="950.0" cy="480.0" r="16.00" fill="none" stroke="#000" stroke-width="2" />
<circle cx="1010.0" cy="480.0" r="20.14" fill="none" stroke="#000" stroke-width="2" />
<circle cx="950.0" cy="420.0" r="20.14" fill="none" stroke="#000" stroke-width="2" />
<circle cx="1010.0" cy="420.0" r="23.32" fill="none" stroke="#000" stroke-width="2" />
<circle cx="830.0" cy="360.0" r="16.00" fill="none" stroke="#000" stroke-width="2" />
<circle cx="890.0" cy="360.0" r="20.14" fill="none" stroke="#000" stroke-width="2" />
<circle cx="950.0" cy="360.0" r="16.00" fill="none" stroke="#000" stroke-width="2" />
<circle cx="950.0" cy="300.0" r="16.00" fill="none" stroke="#000" stroke-width="2" />
<circle cx="890.0" cy="240.0" r="16.00" fill="none" stroke="#000" stroke-width="2" />
<circle cx="950.0" cy="240.0" r="20.14" fill="none" stroke="#000" stroke-width="2" />
<circle cx="1010.0" cy="240.0" r="20.14" fill="none" stroke="#000" stroke-width="2" />
<circle cx="770.0" cy="180.0" r="16.00" fill="none" stroke="#000" stroke-width="2" />
<circle cx="830.0" cy="180.0" r="20.14" fill="none" stroke="#000" stroke-width="2" />
<circle cx="890.0" cy="180.0" r="16.00" fill="none" stroke="#000" stroke-width="2" />
</svg>